<svg width="578" height="253" viewBox="0 0 578 253" fill="none" xmlns="http://www.w3.org/2000/svg">
<path d="M560.191 154.752C532.707 182.4 495.102 200.948 457.421 209.127C374.66 227.06 307.615 162.816 243.024 121.766C211.821 101.952 178.05 82.7517 139.832 87.9357C91.1872 94.5406 44.1143 120.96 5.66625 150.72C-3.38033 157.748 9.30789 170.228 18.2395 163.316C57.1475 133.171 111.005 101.606 161.912 105.062C181.806 106.406 200.59 117.312 217.456 127.027C248.429 144.883 277.792 165.773 307.539 185.588C364.54 223.489 422.039 241.383 488.854 218.919C519.367 208.666 549.918 190.273 572.726 167.309C580.815 159.168 568.241 146.573 560.153 154.714" fill="#037BB9"/>
<path d="M2.63819 165.044C59.1794 237.889 155.587 279.054 240.954 231.937C294.697 202.33 343.418 150.951 404.406 135.936C429.514 129.754 456.232 139.584 480.114 146.112C507.369 153.524 539.837 159.13 566.516 168.5C577.365 172.301 582.003 155.098 571.232 151.335C525.155 135.168 467.004 115.354 417.516 116.391C374.392 117.312 333.874 149.645 299.642 172.148C266.523 193.921 234.208 220.494 195.721 231.86C161.835 241.844 125.917 233.627 95.059 218.42C64.5843 203.406 36.0646 179.367 15.2114 152.448C8.15814 143.386 -4.30009 156.097 2.63819 165.044Z" fill="#2B3A82"/>
<path d="M4.55486 166.272C85.9742 228.558 196.987 181.594 272.809 136.589C297.227 122.073 322.182 109.747 349.974 103.219C389.112 94.0413 430.78 103.603 468.499 114.547C500.584 123.878 539.914 139.776 562.338 166.311C569.775 175.066 582.272 162.432 574.912 153.715C556.933 132.48 528.069 117.965 502.922 107.942C443.736 84.2876 378.263 72.1915 317.046 94.4637C260.888 114.893 216.46 156.48 157.427 170.919C112.539 181.901 52.1645 180.404 13.5248 150.835C4.40153 143.846 -4.41506 159.322 4.55486 166.195" fill="#00AC9D"/>
<path d="M576.905 156.826C527.187 81.9453 437.334 -12.0202 338.857 1.26626C271.774 10.3287 224.011 60.4795 174.178 101.645C137.992 131.558 61.3257 183.476 12.9878 150.605C3.48122 144.115 -5.41203 159.591 4.01789 166.004C35.1443 187.162 82.1789 173.876 113.114 161.05C176.056 135.015 219.488 79.3725 275.876 43.2378C386.926 -27.918 501.35 75.1868 561.533 165.812C567.858 175.335 582.731 165.543 576.368 155.943L576.905 156.787V156.826Z" fill="#0099CB"/>
</svg>
